<mxfile host="Electron" agent="Mozilla/5.0 (Windows NT 10.0; Win64; x64) AppleWebKit/537.36 (KHTML, like Gecko) draw.io/24.7.17 Chrome/128.0.6613.36 Electron/32.0.1 Safari/537.36" version="24.7.17">
  <diagram name="Page-1" id="haynN7dFTDIwlil2D3gh">
    <mxGraphModel dx="794" dy="511" grid="1" gridSize="10" guides="1" tooltips="1" connect="1" arrows="1" fold="1" page="1" pageScale="1" pageWidth="850" pageHeight="1100" math="0" shadow="0">
      <root>
        <mxCell id="0" />
        <mxCell id="1" parent="0" />
        <mxCell id="7yaIy4xPxY4zm2JBkM2R-3" style="edgeStyle=orthogonalEdgeStyle;rounded=0;orthogonalLoop=1;jettySize=auto;html=1;exitX=1;exitY=0.5;exitDx=0;exitDy=0;entryX=0;entryY=0.5;entryDx=0;entryDy=0;" edge="1" parent="1" source="7yaIy4xPxY4zm2JBkM2R-1" target="7yaIy4xPxY4zm2JBkM2R-2">
          <mxGeometry relative="1" as="geometry" />
        </mxCell>
        <mxCell id="7yaIy4xPxY4zm2JBkM2R-1" value="&lt;font style=&quot;font-size: 18px;&quot; face=&quot;Times New Roman&quot;&gt;&lt;b&gt;Start&lt;/b&gt;&lt;/font&gt;" style="ellipse;whiteSpace=wrap;html=1;" vertex="1" parent="1">
          <mxGeometry width="120" height="80" as="geometry" />
        </mxCell>
        <mxCell id="7yaIy4xPxY4zm2JBkM2R-5" style="edgeStyle=orthogonalEdgeStyle;rounded=0;orthogonalLoop=1;jettySize=auto;html=1;exitX=1;exitY=0.5;exitDx=0;exitDy=0;" edge="1" parent="1" source="7yaIy4xPxY4zm2JBkM2R-2" target="7yaIy4xPxY4zm2JBkM2R-4">
          <mxGeometry relative="1" as="geometry" />
        </mxCell>
        <mxCell id="7yaIy4xPxY4zm2JBkM2R-2" value="&lt;font face=&quot;Times New Roman&quot; style=&quot;font-size: 18px;&quot;&gt;display &quot;How many hours will your project take?&quot;&lt;/font&gt;" style="shape=parallelogram;perimeter=parallelogramPerimeter;whiteSpace=wrap;html=1;fixedSize=1;" vertex="1" parent="1">
          <mxGeometry x="200" y="10" width="220" height="60" as="geometry" />
        </mxCell>
        <mxCell id="7yaIy4xPxY4zm2JBkM2R-7" style="edgeStyle=orthogonalEdgeStyle;rounded=0;orthogonalLoop=1;jettySize=auto;html=1;exitX=0.5;exitY=1;exitDx=0;exitDy=0;entryX=0.5;entryY=0;entryDx=0;entryDy=0;" edge="1" parent="1" source="7yaIy4xPxY4zm2JBkM2R-4" target="7yaIy4xPxY4zm2JBkM2R-6">
          <mxGeometry relative="1" as="geometry" />
        </mxCell>
        <mxCell id="7yaIy4xPxY4zm2JBkM2R-4" value="&lt;font style=&quot;font-size: 18px;&quot; face=&quot;Times New Roman&quot;&gt;input laborHours&lt;/font&gt;" style="shape=parallelogram;perimeter=parallelogramPerimeter;whiteSpace=wrap;html=1;fixedSize=1;" vertex="1" parent="1">
          <mxGeometry x="480" y="10" width="120" height="60" as="geometry" />
        </mxCell>
        <mxCell id="7yaIy4xPxY4zm2JBkM2R-9" style="edgeStyle=orthogonalEdgeStyle;rounded=0;orthogonalLoop=1;jettySize=auto;html=1;exitX=0;exitY=0.5;exitDx=0;exitDy=0;" edge="1" parent="1" source="7yaIy4xPxY4zm2JBkM2R-6" target="7yaIy4xPxY4zm2JBkM2R-8">
          <mxGeometry relative="1" as="geometry" />
        </mxCell>
        <mxCell id="7yaIy4xPxY4zm2JBkM2R-6" value="&lt;font face=&quot;Times New Roman&quot; style=&quot;font-size: 18px;&quot;&gt;display &quot;What is the wholesale cost of your materials?&quot;&lt;/font&gt;" style="shape=parallelogram;perimeter=parallelogramPerimeter;whiteSpace=wrap;html=1;fixedSize=1;" vertex="1" parent="1">
          <mxGeometry x="430" y="130" width="220" height="80" as="geometry" />
        </mxCell>
        <mxCell id="7yaIy4xPxY4zm2JBkM2R-14" style="edgeStyle=orthogonalEdgeStyle;rounded=0;orthogonalLoop=1;jettySize=auto;html=1;exitX=0.5;exitY=1;exitDx=0;exitDy=0;entryX=0.5;entryY=0;entryDx=0;entryDy=0;" edge="1" parent="1" source="7yaIy4xPxY4zm2JBkM2R-8" target="7yaIy4xPxY4zm2JBkM2R-11">
          <mxGeometry relative="1" as="geometry" />
        </mxCell>
        <mxCell id="7yaIy4xPxY4zm2JBkM2R-8" value="&lt;font style=&quot;font-size: 18px;&quot; face=&quot;Times New Roman&quot;&gt;input wholesaleCost&lt;/font&gt;" style="shape=parallelogram;perimeter=parallelogramPerimeter;whiteSpace=wrap;html=1;fixedSize=1;" vertex="1" parent="1">
          <mxGeometry x="180" y="140" width="190" height="60" as="geometry" />
        </mxCell>
        <mxCell id="7yaIy4xPxY4zm2JBkM2R-16" style="edgeStyle=orthogonalEdgeStyle;rounded=0;orthogonalLoop=1;jettySize=auto;html=1;exitX=1;exitY=0.5;exitDx=0;exitDy=0;entryX=0;entryY=0.5;entryDx=0;entryDy=0;" edge="1" parent="1" source="7yaIy4xPxY4zm2JBkM2R-11" target="7yaIy4xPxY4zm2JBkM2R-15">
          <mxGeometry relative="1" as="geometry" />
        </mxCell>
        <mxCell id="7yaIy4xPxY4zm2JBkM2R-11" value="&lt;font style=&quot;font-size: 18px;&quot; face=&quot;Times New Roman&quot;&gt;totalLabor = laborHours + 30&lt;/font&gt;" style="rounded=0;whiteSpace=wrap;html=1;" vertex="1" parent="1">
          <mxGeometry x="185" y="250" width="180" height="60" as="geometry" />
        </mxCell>
        <mxCell id="7yaIy4xPxY4zm2JBkM2R-18" style="edgeStyle=orthogonalEdgeStyle;rounded=0;orthogonalLoop=1;jettySize=auto;html=1;exitX=1;exitY=0.5;exitDx=0;exitDy=0;entryX=0;entryY=0.5;entryDx=0;entryDy=0;" edge="1" parent="1" source="7yaIy4xPxY4zm2JBkM2R-15" target="7yaIy4xPxY4zm2JBkM2R-17">
          <mxGeometry relative="1" as="geometry" />
        </mxCell>
        <mxCell id="7yaIy4xPxY4zm2JBkM2R-15" value="&lt;font style=&quot;font-size: 18px;&quot; face=&quot;Times New Roman&quot;&gt;totalWholesale = wholesaleCost * 1.20&lt;/font&gt;" style="rounded=0;whiteSpace=wrap;html=1;" vertex="1" parent="1">
          <mxGeometry x="450" y="250" width="160" height="60" as="geometry" />
        </mxCell>
        <mxCell id="7yaIy4xPxY4zm2JBkM2R-20" style="edgeStyle=orthogonalEdgeStyle;rounded=0;orthogonalLoop=1;jettySize=auto;html=1;exitX=0.5;exitY=1;exitDx=0;exitDy=0;entryX=0.5;entryY=0;entryDx=0;entryDy=0;" edge="1" parent="1" source="7yaIy4xPxY4zm2JBkM2R-17" target="7yaIy4xPxY4zm2JBkM2R-19">
          <mxGeometry relative="1" as="geometry" />
        </mxCell>
        <mxCell id="7yaIy4xPxY4zm2JBkM2R-17" value="&lt;font face=&quot;Times New Roman&quot; style=&quot;font-size: 18px;&quot;&gt;finalCost = totalLabor + totalWholesale&lt;/font&gt;" style="rounded=0;whiteSpace=wrap;html=1;" vertex="1" parent="1">
          <mxGeometry x="650" y="250" width="130" height="60" as="geometry" />
        </mxCell>
        <mxCell id="7yaIy4xPxY4zm2JBkM2R-23" style="edgeStyle=orthogonalEdgeStyle;rounded=0;orthogonalLoop=1;jettySize=auto;html=1;exitX=0;exitY=0.5;exitDx=0;exitDy=0;entryX=1;entryY=0.5;entryDx=0;entryDy=0;" edge="1" parent="1" source="7yaIy4xPxY4zm2JBkM2R-19" target="7yaIy4xPxY4zm2JBkM2R-22">
          <mxGeometry relative="1" as="geometry" />
        </mxCell>
        <mxCell id="7yaIy4xPxY4zm2JBkM2R-19" value="&lt;font face=&quot;Times New Roman&quot; style=&quot;font-size: 18px;&quot;&gt;display finalCost&lt;/font&gt;" style="shape=parallelogram;perimeter=parallelogramPerimeter;whiteSpace=wrap;html=1;fixedSize=1;" vertex="1" parent="1">
          <mxGeometry x="655" y="340" width="120" height="60" as="geometry" />
        </mxCell>
        <mxCell id="7yaIy4xPxY4zm2JBkM2R-25" style="edgeStyle=orthogonalEdgeStyle;rounded=0;orthogonalLoop=1;jettySize=auto;html=1;exitX=0;exitY=0.5;exitDx=0;exitDy=0;" edge="1" parent="1" source="7yaIy4xPxY4zm2JBkM2R-22" target="7yaIy4xPxY4zm2JBkM2R-24">
          <mxGeometry relative="1" as="geometry" />
        </mxCell>
        <mxCell id="7yaIy4xPxY4zm2JBkM2R-22" value="&lt;font style=&quot;font-size: 18px;&quot; face=&quot;Times New Roman&quot;&gt;display &quot;End of program&quot;&lt;/font&gt;" style="shape=parallelogram;perimeter=parallelogramPerimeter;whiteSpace=wrap;html=1;fixedSize=1;" vertex="1" parent="1">
          <mxGeometry x="400" y="340" width="180" height="60" as="geometry" />
        </mxCell>
        <mxCell id="7yaIy4xPxY4zm2JBkM2R-24" value="&lt;font style=&quot;font-size: 18px;&quot; face=&quot;Times New Roman&quot;&gt;&lt;b&gt;Stop&lt;/b&gt;&lt;/font&gt;" style="ellipse;whiteSpace=wrap;html=1;" vertex="1" parent="1">
          <mxGeometry x="160" y="330" width="120" height="80" as="geometry" />
        </mxCell>
      </root>
    </mxGraphModel>
  </diagram>
</mxfile>
